HIERARCHY
ROOT Hips
{
	OFFSET	0.00	0.00	0.00
	CHANNELS 6 Xposition Yposition Zposition Zrotation Xrotation Yrotation
	JOINT LeftUpLeg
	{
		OFFSET	 0.126116	-0.065224	 0.014019
		CHANNELS 3 Zrotation Xrotation Yrotation
		JOINT LeftLeg
		{
			OFFSET	 0.000000	 0.569914	 0.000000
			CHANNELS 3 Zrotation Xrotation Yrotation
			JOINT LeftFoot
			{
				OFFSET	 0.000000	 0.544423	 0.000000
				CHANNELS 3 Zrotation Xrotation Yrotation
				JOINT LeftToeBase
				{
					OFFSET	 0.000000	 0.207117	 0.000000
					CHANNELS 3 Zrotation Xrotation Yrotation
					End Site
					{
						OFFSET	 0.000000	 0.207117	 0.000000
					}
				}
			}
		}
	}
	JOINT RightUpLeg
	{
		OFFSET	-0.124023	-0.065224	 0.008373
		CHANNELS 3 Zrotation Xrotation Yrotation
		JOINT RightLeg
		{
			OFFSET	 0.000000	 0.570047	 0.000000
			CHANNELS 3 Zrotation Xrotation Yrotation
			JOINT RightFoot
			{
				OFFSET	 0.000000	 0.544354	 0.000000
				CHANNELS 3 Zrotation Xrotation Yrotation
				JOINT RightToeBase
				{
					OFFSET	 0.000000	 0.207540	 0.000000
					CHANNELS 3 Zrotation Xrotation Yrotation
					End Site
					{
						OFFSET	 0.000000	 0.207540	 0.000000
					}
				}
			}
		}
	}
	JOINT Spine
	{
		OFFSET	 0.000184	 0.117403	 0.007763
		CHANNELS 3 Zrotation Xrotation Yrotation
		JOINT Spine1
		{
			OFFSET	 0.000000	 0.137269	 0.000000
			CHANNELS 3 Zrotation Xrotation Yrotation
			JOINT Spine2
			{
				OFFSET	 0.000000	 0.156879	 0.000000
				CHANNELS 3 Zrotation Xrotation Yrotation
				JOINT LeftShoulder
				{
					OFFSET	 0.080501	 0.160143	 0.002496
					CHANNELS 3 Zrotation Xrotation Yrotation
					JOINT LeftArm
					{
						OFFSET	 0.000000	 0.164363	 0.000000
						CHANNELS 3 Zrotation Xrotation Yrotation
						JOINT LeftForeArm
						{
							OFFSET	 0.000000	 0.364576	 0.000000
							CHANNELS 3 Zrotation Xrotation Yrotation
							JOINT LeftHand
							{
								OFFSET	 0.000000	 0.360812	 0.000000
								CHANNELS 3 Zrotation Xrotation Yrotation
								JOINT LeftHandIndex1
								{
									OFFSET	 0.000000	 0.086006	 0.000000
									CHANNELS 3 Zrotation Xrotation Yrotation
									JOINT LeftHandIndex2
									{
										OFFSET	 0.000000	 0.047237	 0.000000
										CHANNELS 3 Zrotation Xrotation Yrotation
										JOINT LeftHandIndex3
										{
											OFFSET	-0.004284	 0.038165	 0.000551
											CHANNELS 3 Zrotation Xrotation Yrotation
											End Site
											{
												OFFSET	-0.004284	 0.038165	 0.000551
											}
										}
									}
								}
							}
						}
					}
				}
				JOINT Neck
				{
					OFFSET	 0.000000	 0.176489	 0.000000
					CHANNELS 3 Zrotation Xrotation Yrotation
					JOINT Head
					{
						OFFSET	 0.000000	 0.077941	 0.001747
						CHANNELS 3 Zrotation Xrotation Yrotation
						End Site
						{
							OFFSET	 0.000000	 0.077941	 0.001747
						}
					}
				}
				JOINT RightShoulder
				{
					OFFSET	-0.080363	 0.159706	-0.000306
					CHANNELS 3 Zrotation Xrotation Yrotation
					JOINT RightArm
					{
						OFFSET	 0.000000	 0.164196	 0.000000
						CHANNELS 3 Zrotation Xrotation Yrotation
						JOINT RightForeArm
						{
							OFFSET	 0.000000	 0.365611	 0.000000
							CHANNELS 3 Zrotation Xrotation Yrotation
							JOINT RightHand
							{
								OFFSET	 0.000000	 0.360648	 0.000000
								CHANNELS 3 Zrotation Xrotation Yrotation
								JOINT RightHandIndex1
								{
									OFFSET	 0.000000	 0.069977	 0.000000
									CHANNELS 3 Zrotation Xrotation Yrotation
									JOINT RightHandIndex2
									{
										OFFSET	 0.000000	 0.052305	 0.000000
										CHANNELS 3 Zrotation Xrotation Yrotation
										JOINT RightHandIndex3
										{
											OFFSET	 0.009002	 0.042196	 0.000782
											CHANNELS 3 Zrotation Xrotation Yrotation
											End Site
											{
												OFFSET	 0.009002	 0.042196	 0.000782
											}
										}
									}
								}
							}
						}
					}
				}
			}
		}
	}
}
MOTION
Frames:    13
Frame Time: 0.03333334
-0.000836	 1.269485	-0.008652	-0.074736	 3.235366	 178.810800	 175.634000	 2.692192	 13.755880	 3.186057	-15.722920	 2.903261	-2.358442	 70.346530	 5.973496	 1.331492	 28.938720	-2.729976	-175.921300	 3.246287	-10.274130	-5.060585	-16.225440	-6.447880	-0.369408	 70.124380	-0.846602	-1.305360	 28.580650	 2.604572	-1.157569	 3.433038	 0.662345	-1.682837	 3.321861	-0.456299	-1.588662	-1.662771	-3.010064	-113.447000	 5.126207	 93.000090	 7.007782	 52.733170	 37.575580	 19.237840	-0.976763	 0.081674	-7.149874	-8.970952	-12.230380	-6.580301	 5.266122	 0.000000	 0.000000	 0.000000	 0.000000	 0.000000	 0.000000	 0.000000	 3.830611	-0.645669	-0.250339	 3.212651	 1.171718	 0.855580	 114.205600	-4.427808	-88.482900	-47.617990	 13.558390	 44.544950	-94.332640	-2.246626	-2.364740	-24.911260	-13.178340	-29.426000	-0.359781	 10.582440	 0.744568	 11.977790	 9.317307	-2.096064	-8.359142	 3.150335	 0.104224
-0.000796	 1.269484	-0.008690	-0.068026	 3.236395	 178.797600	 175.641700	 2.694324	 13.741320	 3.188460	-15.734100	 2.897953	-2.377113	 70.356830	 5.992666	 1.331492	 28.938720	-2.729976	-175.914100	 3.239809	-10.281580	-5.057060	-16.214750	-6.456725	-0.394739	 70.118900	-0.819040	-1.305364	 28.580670	 2.603541	-1.158224	 3.429524	 0.665741	-1.678002	 3.326377	-0.449448	-1.591596	-1.670610	-3.008065	-113.447100	 5.124023	 92.999600	 6.992288	 52.731700	 37.601990	 19.286310	-0.979135	 0.082582	-7.193901	-8.948641	-12.245410	-6.580301	 5.266122	 0.000000	 0.000000	 0.000000	 0.000000	 0.000000	 0.000000	 0.000000	 3.834169	-0.653830	-0.251447	 3.226033	 1.176334	 0.847891	 114.205000	-4.423487	-88.486030	-47.367000	 13.485920	 44.023850	-94.709640	-2.245435	-2.379473	-25.130970	-12.982660	-29.657230	-0.359780	 10.582420	 0.744568	 11.977790	 9.317286	-2.096060	-8.359142	 3.150323	 0.104225
-0.000746	 1.269483	-0.008737	-0.060135	 3.237555	 178.781700	 175.650800	 2.696985	 13.723970	 3.191333	-15.747610	 2.891573	-2.399546	 70.369270	 6.015561	 1.331492	 28.938720	-2.729976	-175.905300	 3.232109	-10.290810	-5.052892	-16.202120	-6.467238	-0.425850	 70.112370	-0.785411	-1.305369	 28.580700	 2.602316	-1.158990	 3.425359	 0.669594	-1.673233	 3.331278	-0.441460	-1.594590	-1.679816	-3.005650	-113.447200	 5.121415	 92.999020	 6.972118	 52.729120	 37.635280	 19.350150	-0.982326	 0.083649	-7.251779	-8.921909	-12.264010	-6.580301	 5.266122	 0.000000	 0.000000	 0.000000	 0.000000	 0.000000	 0.000000	 0.000000	 3.838395	-0.663525	-0.252763	 3.241933	 1.181742	 0.838780	 114.204200	-4.418327	-88.489760	-47.073250	 13.413770	 43.388260	-95.199550	-2.243765	-2.398632	-25.364860	-12.758670	-29.955420	-0.359780	 10.582390	 0.744568	 11.977790	 9.317259	-2.096055	-8.359142	 3.150310	 0.104227
-0.000684	 1.269481	-0.008794	-0.051118	 3.238872	 178.763900	 175.661400	 2.699938	 13.704320	 3.194584	-15.762830	 2.884317	-2.425661	 70.383410	 6.042043	 1.331492	 28.938720	-2.729976	-175.895200	 3.223105	-10.301060	-5.048048	-16.187440	-6.479236	-0.461768	 70.104840	-0.746912	-1.305375	 28.580730	 2.600918	-1.159882	 3.420607	 0.673538	-1.668710	 3.336344	-0.432751	-1.597591	-1.690198	-3.002898	-113.447200	 5.118464	 92.998370	 6.946510	 52.725000	 37.675160	 19.431280	-0.986183	 0.085029	-7.325017	-8.891156	-12.285560	-6.580301	 5.266122	 0.000000	 0.000000	 0.000000	 0.000000	 0.000000	 0.000000	 0.000000	 3.843219	-0.674594	-0.254264	 3.260086	 1.187939	 0.828363	 114.203400	-4.412451	-88.494030	-46.744480	 13.347630	 42.640870	-95.810950	-2.241524	-2.422580	-25.596240	-12.513720	-30.326360	-0.359779	 10.582360	 0.744568	 11.977790	 9.317231	-2.096049	-8.359141	 3.150294	 0.104228
-0.000608	 1.269479	-0.008863	-0.040855	 3.240470	 178.743400	 175.673900	 2.703040	 13.681830	 3.198232	-15.779920	 2.876062	-2.455608	 70.399520	 6.072192	 1.331492	 28.938720	-2.729976	-175.883400	 3.212344	-10.312720	-5.042342	-16.170130	-6.492899	-0.503110	 70.095950	-0.703072	-1.305381	 28.580770	 2.599326	-1.160907	 3.415198	 0.677815	-1.664817	 3.341423	-0.422998	-1.600423	-1.701416	-2.999765	-113.447200	 5.115098	 92.997670	 6.915141	 52.719100	 37.722310	 19.533160	-0.991175	 0.086758	-7.416892	-8.855713	-12.310370	-6.580301	 5.266122	 0.000000	 0.000000	 0.000000	 0.000000	 0.000000	 0.000000	 0.000000	 3.848711	-0.687197	-0.255973	 3.280759	 1.195095	 0.816454	 114.202400	-4.405765	-88.498850	-46.379350	 13.289490	 41.762150	-96.569510	-2.238292	-2.452255	-25.814020	-12.247850	-30.787630	-0.359778	 10.582330	 0.744568	 11.977790	 9.317196	-2.096042	-8.359140	 3.150276	 0.104230
-0.000517	 1.269477	-0.008945	-0.029417	 3.242248	 178.720400	 175.688000	 2.706451	 13.656580	 3.202320	-15.799080	 2.866765	-2.489695	 70.417770	 6.106252	 1.331492	 28.938720	-2.729976	-175.869800	 3.199999	-10.325770	-5.035947	-16.150780	-6.508256	-0.550189	 70.086160	-0.653628	-1.305388	 28.580800	 2.597533	-1.162091	 3.409118	 0.682132	-1.662145	 3.346534	-0.412443	-1.602776	-1.713992	-2.996233	-113.447300	 5.111300	 92.996820	 6.875855	 52.710950	 37.778390	 19.660050	-0.997397	 0.088995	-7.530878	-8.815475	-12.338770	-6.580301	 5.266122	 0.000000	 0.000000	 0.000000	 0.000000	 0.000000	 0.000000	 0.000000	 3.854893	-0.701385	-0.257894	 3.304035	 1.203064	 0.803080	 114.201300	-4.398236	-88.504300	-45.982220	 13.241050	 40.738200	-97.494960	-2.233842	-2.488366	-26.001950	-11.963620	-31.355420	-0.359776	 10.582290	 0.744568	 11.977790	 9.317161	-2.096034	-8.359139	 3.150257	 0.104232
-0.000421	 1.269475	-0.009030	-0.018180	 3.243986	 178.697800	 175.702300	 2.709640	 13.631860	 3.206264	-15.817520	 2.857704	-2.523346	 70.435500	 6.139596	 1.331492	 28.938720	-2.729976	-175.856100	 3.187897	-10.338430	-5.029770	-16.132020	-6.523404	-0.596755	 70.076700	-0.605125	-1.305395	 28.580850	 2.595780	-1.163245	 3.403167	 0.685920	-1.660933	 3.350032	-0.402474	-1.604443	-1.725360	-2.992801	-113.447400	 5.107565	 92.996000	 6.835199	 52.701850	 37.835160	 19.794200	-1.003903	 0.091321	-7.651900	-8.775762	-12.367250	-6.580301	 5.266122	 0.000000	 0.000000	 0.000000	 0.000000	 0.000000	 0.000000	 0.000000	 3.860943	-0.715267	-0.259773	 3.326813	 1.210861	 0.789984	 114.200200	-4.390845	-88.509650	-45.610430	 13.205480	 39.701040	-98.464190	-2.228565	-2.526118	-26.128970	-11.699560	-31.959950	-0.359775	 10.582250	 0.744568	 11.977790	 9.317122	-2.096027	-8.359138	 3.150237	 0.104233
-0.000299	 1.269472	-0.009136	-0.004656	 3.246087	 178.670500	 175.720000	 2.713449	 13.601900	 3.211016	-15.839770	 2.846730	-2.564791	 70.457030	 6.180367	 1.331492	 28.938720	-2.729976	-175.839200	 3.172678	-10.353850	-5.022042	-16.108590	-6.541695	-0.654350	 70.064870	-0.545730	-1.305403	 28.580890	 2.593657	-1.164719	 3.395978	 0.690064	-1.661264	 3.353939	-0.390788	-1.605591	-1.739088	-2.988618	-113.447400	 5.103079	 92.995030	 6.783704	 52.689360	 37.905640	 19.969400	-1.012456	 0.094375	-7.810389	-8.727070	-12.402180	-6.580301	 5.266122	 0.000000	 0.000000	 0.000000	 0.000000	 0.000000	 0.000000	 0.000000	 3.868265	-0.732073	-0.262045	 3.354395	 1.220353	 0.774097	 114.198900	-4.381933	-88.516080	-45.186070	 13.170380	 38.400340	-99.710260	-2.220821	-2.574435	-26.208510	-11.396560	-32.754650	-0.359774	 10.582210	 0.744568	 11.977790	 9.317078	-2.096018	-8.359138	 3.150214	 0.104236
-0.000157	 1.269469	-0.009261	 0.009992	 3.248526	 178.641100	 175.739400	 2.717300	 13.569650	 3.216190	-15.864000	 2.834812	-2.610060	 70.480710	 6.224501	 1.331492	 28.938720	-2.729976	-175.820300	 3.155663	-10.370370	-5.013648	-16.083120	-6.561666	-0.718095	 70.052150	-0.480586	-1.305412	 28.580950	 2.591346	-1.166328	 3.388162	 0.693856	-1.663733	 3.356888	-0.378675	-1.605849	-1.753314	-2.984052	-113.447500	 5.098179	 92.993950	 6.724661	 52.674710	 37.984540	 20.173670	-1.022363	 0.098028	-7.995975	-8.673694	-12.440780	-6.580301	 5.266122	 0.000000	 0.000000	 0.000000	 0.000000	 0.000000	 0.000000	 0.000000	 3.876237	-0.750373	-0.264517	 3.384435	 1.230597	 0.756819	 114.197500	-4.372211	-88.523120	-44.762570	 13.132300	 36.929430	-101.139300	-2.210652	-2.629748	-26.205630	-11.084990	-33.695980	-0.359772	 10.582160	 0.744568	 11.977790	 9.317030	-2.096008	-8.359138	 3.150188	 0.104238
 0.000010	 1.269466	-0.009405	 0.026178	 3.250954	 178.608300	 175.761500	 2.721557	 13.533770	 3.221834	-15.890470	 2.821605	-2.661279	 70.506910	 6.274134	 1.331492	 28.938720	-2.729976	-175.799000	 3.136566	-10.388650	-5.004217	-16.054520	-6.583745	-0.789452	 70.037980	-0.408396	-1.305422	 28.581000	 2.588792	-1.168105	 3.379524	 0.697614	-1.668869	 3.358396	-0.365630	-1.605000	-1.768296	-2.979013	-113.447600	 5.092764	 92.992760	 6.657877	 52.657730	 38.073240	 20.412460	-1.033975	 0.102282	-8.214622	-8.614336	-12.484020	-6.580301	 5.266122	 0.000000	 0.000000	 0.000000	 0.000000	 0.000000	 0.000000	 0.000000	 3.885042	-0.770588	-0.267244	 3.417625	 1.241932	 0.737716	 114.196000	-4.361470	-88.530890	-44.350220	 13.078220	 35.241270	-102.782700	-2.197282	-2.692917	-26.097310	-10.760180	-34.824440	-0.359770	 10.582100	 0.744568	 11.977790	 9.316977	-2.095998	-8.359137	 3.150160	 0.104241
 0.000194	 1.269463	-0.009564	 0.043156	 3.253662	 178.573900	 175.785200	 2.725831	 13.496090	 3.227739	-15.918070	 2.807788	-2.715421	 70.534450	 6.326102	 1.331492	 28.938720	-2.729976	-175.776000	 3.116095	-10.407690	-4.994294	-16.024410	-6.607110	-0.865346	 70.022990	-0.332277	-1.305432	 28.581060	 2.586102	-1.170029	 3.370442	 0.701125	-1.676555	 3.358778	-0.352213	-1.603043	-1.783364	-2.973681	-113.447700	 5.087079	 92.991490	 6.587811	 52.639740	 38.166140	 20.675410	-1.046650	 0.107066	-8.457947	-8.551271	-12.529770	-6.580301	 5.266122	 0.000000	 0.000000	 0.000000	 0.000000	 0.000000	 0.000000	 0.000000	 3.894320	-0.791890	-0.270115	 3.452607	 1.253904	 0.717535	 114.194400	-4.350170	-88.539080	-43.991270	 12.993970	 33.394880	-104.560600	-2.180725	-2.760808	-25.867630	-10.436790	-36.109150	-0.359769	 10.582050	 0.744568	 11.977790	 9.316920	-2.095986	-8.359135	 3.150130	 0.104244
 0.000401	 1.269460	-0.009743	 0.061282	 3.256610	 178.536900	 175.811000	 2.729747	 13.455680	 3.233916	-15.946930	 2.793053	-2.773819	 70.563880	 6.381873	 1.331492	 28.938720	-2.729976	-175.751000	 3.093365	-10.428140	-4.983438	-15.991410	-6.632117	-0.947832	 70.006730	-0.250235	-1.305443	 28.581130	 2.583228	-1.172120	 3.360755	 0.704628	-1.687081	 3.358783	-0.338037	-1.599832	-1.799529	-2.967998	-113.447800	 5.080988	 92.990180	 6.514684	 52.621220	 38.264290	 20.965280	-1.060712	 0.112401	-8.729482	-8.483659	-12.578760	-6.580301	 5.266122	 0.000000	 0.000000	 0.000000	 0.000000	 0.000000	 0.000000	 0.000000	 3.904227	-0.814640	-0.273177	 3.489981	 1.266601	 0.696015	 114.192600	-4.338079	-88.547810	-43.708940	 12.859140	 31.353240	-106.480100	-2.160575	-2.833534	-25.495750	-10.109810	-37.581630	-0.359767	 10.581990	 0.744568	 11.977790	 9.316859	-2.095974	-8.359134	 3.150098	 0.104247
 0.000635	 1.269455	-0.009947	 0.080970	 3.259780	 178.496700	 175.839600	 2.734105	 13.411670	 3.240709	-15.978680	 2.777075	-2.838402	 70.596270	 6.443183	 1.331492	 28.938720	-2.729976	-175.723300	 3.068196	-10.450420	-4.971615	-15.955540	-6.659358	-1.038865	 69.989260	-0.160290	-1.305455	 28.581190	 2.580104	-1.174395	 3.350214	 0.708366	-1.700767	 3.356147	-0.322588	-1.595332	-1.815536	-2.961842	-113.447900	 5.074349	 92.988720	 6.438544	 52.602830	 38.367880	 21.286610	-1.076179	 0.118379	-9.034948	-8.409759	-12.631010	-6.580301	 5.266122	 0.000000	 0.000000	 0.000000	 0.000000	 0.000000	 0.000000	 0.000000	 3.914999	-0.839380	-0.276503	 3.530634	 1.280498	 0.672557	 114.190700	-4.324948	-88.557320	-43.540470	 12.646320	 29.060920	-108.553600	-2.136046	-2.911259	-24.948990	-9.772558	-39.289110	-0.359765	 10.581920	 0.744568	 11.977790	 9.316794	-2.095961	-8.359133	 3.150064	 0.104250
